<svg width="43" height="41" viewBox="0 0 43 41" fill="none" xmlns="http://www.w3.org/2000/svg">
<g clip-path="url(#clip0_1_810)">
<path d="M9.89077 13.9608C9.56323 13.6485 9.03077 13.6485 8.70332 13.9608C8.37494 14.2739 8.37494 14.7808 8.70332 15.0931C9.03086 15.4062 9.56332 15.4062 9.89077 15.0931C10.2191 14.7808 10.2191 14.2739 9.89077 13.9608Z" fill="#286465"/>
<path d="M21.2648 35.8515C21.6351 35.3733 21.8352 34.7971 21.8352 34.1913C21.8352 32.646 20.5167 31.3887 18.8959 31.3887H4.61898C3.83347 31.3887 3.09533 31.6802 2.54045 32.2094C1.98531 32.7386 1.67961 33.4424 1.67961 34.1913C1.67961 34.8119 1.89259 35.3857 2.25196 35.8506C0.914676 36.521 0 37.8583 0 39.3962V40.197C0 40.6392 0.376083 40.9977 0.839845 40.9977H22.675C23.1388 40.9977 23.5148 40.6392 23.5148 40.197V39.3962C23.5148 37.859 22.6011 36.5222 21.2648 35.8515ZM3.72807 33.3417C3.96583 33.1149 4.28229 32.9901 4.61898 32.9901H18.8959C19.5905 32.9901 20.1555 33.5289 20.1555 34.1912C20.1555 34.5123 20.0245 34.8139 19.7867 35.0407C19.5489 35.2675 19.2325 35.3923 18.8958 35.3923H4.61898C3.92435 35.3923 3.3593 34.8535 3.3593 34.1913C3.3593 33.8702 3.49023 33.5685 3.72807 33.3417ZM1.67961 39.3962C1.67961 38.0716 2.80987 36.9939 4.19906 36.9939H4.61898H18.8959H19.3158C20.705 36.9939 21.8352 38.0716 21.8352 39.3962H1.67961Z" fill="#1B6CE1"/>
<path d="M42.2167 33.6427C41.9315 33.2213 41.5912 32.8486 41.2051 32.535L37.2809 29.2716C37.2503 29.2277 37.2149 29.186 37.1743 29.1474C37.1061 29.0824 37.0289 29.0317 36.9467 28.9938L34.5736 27.0203L23.5892 17.884C24.0389 17.4358 24.2865 16.8498 24.2865 16.2265C24.2865 15.5844 24.0244 14.981 23.5479 14.5268C23.3401 14.329 23.104 14.1734 22.8516 14.0594L23.8678 13.0905C24.1519 13.1625 24.4437 13.1993 24.7358 13.1993C25.5959 13.1992 26.4561 12.8871 27.1108 12.2628C27.7456 11.6576 28.0951 10.8532 28.0951 9.99777C28.0951 9.1423 27.7456 8.33791 27.1109 7.73276L19.985 0.938437C19.3503 0.333286 18.5066 0 17.6091 0C16.7121 0 15.8686 0.333286 15.234 0.938437C14.3569 1.77477 14.0682 2.96226 14.366 4.03066L4.22694 13.698C3.94677 13.627 3.65526 13.5895 3.35745 13.5895C2.45982 13.5895 1.61653 13.9226 0.982367 14.5272C-0.327456 15.7761 -0.327456 17.8082 0.982367 19.0572L8.1082 25.8517C8.7632 26.4761 9.62345 26.7883 10.4837 26.7883C11.344 26.7883 12.2043 26.4761 12.8593 25.8517C13.7364 25.0153 14.0252 23.8279 13.7274 22.7594L14.7415 21.7924C14.8633 22.0351 15.0287 22.259 15.2341 22.4548C15.71 22.9085 16.3426 23.1584 17.0159 23.1584C17.6688 23.1584 18.2833 22.9227 18.754 22.4945L30.4535 35.3113C30.4858 35.3594 30.5234 35.4051 30.5674 35.447C30.5825 35.4614 30.5984 35.4744 30.6143 35.4874L34.1006 39.3067C34.1872 39.4042 34.2799 39.5001 34.376 39.5918C35.3336 40.5045 36.5983 40.9998 37.9261 40.9998C38.1601 40.9998 38.3964 40.9844 38.633 40.9532C40.2143 40.7445 41.581 39.8425 42.3824 38.4781C43.2603 36.9828 43.1949 35.0844 42.2167 33.6427ZM16.4218 2.0709C16.7392 1.76829 17.161 1.60157 17.6092 1.60157C18.058 1.60157 18.48 1.76829 18.7973 2.0709L25.9233 8.86531C26.2406 9.16792 26.4154 9.57015 26.4154 9.99785C26.4154 10.4256 26.2406 10.8278 25.9232 11.1304C25.2685 11.7548 24.2031 11.7548 23.5484 11.1304L16.4223 4.33568C16.4221 4.33552 16.422 4.33544 16.4218 4.33528C15.767 3.71099 15.767 2.69519 16.4218 2.0709ZM11.6716 24.7192C11.0167 25.3437 9.95082 25.3437 9.29591 24.7192L2.17008 17.9248C1.51508 17.3003 1.51508 16.2842 2.17008 15.6596C2.48687 15.3575 2.90864 15.1911 3.35745 15.1911C3.80618 15.1911 4.2277 15.3574 4.5444 15.6593L11.6715 22.4549C12.3264 23.0791 12.3264 24.095 11.6716 24.7192ZM15.2075 19.0833L12.8592 21.3224L5.73262 14.5273L15.234 5.46766L22.3605 12.2628L20.008 14.506C20.0003 14.5129 19.9929 14.5196 19.9848 14.5272L15.2365 19.0548C15.2266 19.064 15.2172 19.0736 15.2075 19.0833ZM18.2063 20.7538C18.2046 20.7554 18.203 20.7569 18.2013 20.7585L17.6099 21.3224C17.4512 21.4736 17.2403 21.5569 17.0158 21.5569C16.7913 21.5569 16.5803 21.4736 16.4217 21.3224C16.2629 21.171 16.1755 20.9697 16.1755 20.7555C16.1755 20.5458 16.2594 20.3486 16.4117 20.1998L21.1821 15.6513C21.509 15.3481 22.0376 15.3519 22.3607 15.6596C22.5194 15.811 22.6069 16.0123 22.6069 16.2265C22.6069 16.4405 22.5197 16.6413 22.3606 16.7926L21.7727 17.3532C21.7686 17.357 21.7646 17.3608 21.7606 17.3647L18.2063 20.7538ZM19.9454 21.3604L22.3999 19.02L32.7923 27.6633L29.0001 31.2792L19.9454 21.3604ZM30.1054 32.4902L34.061 28.7185L35.3298 29.7737L31.2108 33.7012L30.1054 32.4902ZM40.9169 37.6957C40.3749 38.6185 39.4585 39.2275 38.4028 39.3668C37.3494 39.5058 36.3145 39.175 35.5635 38.4593C35.4989 38.3978 35.4371 38.3336 35.3795 38.2686C35.3768 38.2656 35.3741 38.2625 35.3713 38.2596L32.316 34.9121L36.5984 30.8288L40.1048 33.745C40.1074 33.7472 40.1101 33.7494 40.1129 33.7516C40.3753 33.9644 40.6082 34.2199 40.8058 34.5119C41.4409 35.4476 41.4854 36.7273 40.9169 37.6957Z" fill="#1B6CE1"/>
<path d="M15.829 8.29898C15.501 7.98628 14.9693 7.98628 14.6413 8.29898L11.078 11.6965C10.75 12.0092 10.75 12.5163 11.078 12.8289C11.242 12.9853 11.4569 13.0635 11.6719 13.0635C11.8868 13.0635 12.1017 12.9852 12.2657 12.8289L15.829 9.43137C16.157 9.11874 16.157 8.61177 15.829 8.29898Z" fill="#286465"/>
</g>
<defs>
<clipPath id="clip0_1_810">
<rect width="43" height="41" fill="white"/>
</clipPath>
</defs>
</svg>
