<svg width="40" height="40" viewBox="0 0 40 40" fill="none" xmlns="http://www.w3.org/2000/svg">
<g clip-path="url(#clip0_1_827)">
<path d="M39.2891 7.56479C38.7709 6.95214 38.0451 6.57792 37.2453 6.51112L9.07692 4.1591C8.27708 4.0923 7.49942 4.34097 6.88669 4.85918C6.27646 5.37535 5.90279 6.09745 5.83388 6.89331L5.26717 12.2102H3.00429C1.34773 12.2102 0 13.5579 0 15.2144V32.8473C0 34.5039 1.34773 35.8516 3.00429 35.8516H31.2708C32.9274 35.8516 34.2752 34.5039 34.2752 32.8473V29.987L35.2782 30.0707C35.3628 30.0777 35.447 30.0813 35.5304 30.0813C37.0748 30.0813 38.3913 28.8931 38.5221 27.3268L39.9894 9.75509C40.0561 8.95533 39.8074 8.17752 39.2891 7.56479ZM3.00429 13.7727H31.2708C32.0658 13.7727 32.7127 14.4194 32.7127 15.2144V16.8212H1.56249V15.2144C1.56249 14.4194 2.20929 13.7727 3.00429 13.7727ZM1.56249 18.3837H32.7127V21.625H1.56249V18.3837ZM31.2708 34.2891H3.00429C2.20929 34.2891 1.56249 33.6423 1.56249 32.8473V23.1875H32.7127V32.8473C32.7127 33.6423 32.0658 34.2891 31.2708 34.2891ZM38.4323 9.62502L36.965 27.1967C36.8988 27.989 36.2003 28.58 35.4082 28.5136L34.2752 28.419V15.2144C34.2752 13.5579 32.9274 12.2102 31.2708 12.2102H6.83857L7.38849 7.05081C7.38911 7.04487 7.38966 7.03901 7.39013 7.033C7.4563 6.24073 8.15442 5.6498 8.94692 5.7162L37.1154 8.06823C37.4992 8.10026 37.8476 8.27987 38.0963 8.57393C38.3449 8.86799 38.4643 9.24119 38.4323 9.62502Z" fill="#1B6CE1"/>
<path d="M29.4447 25.5098H21.9258C21.4943 25.5098 21.1445 25.8595 21.1445 26.291V31.1964C21.1445 31.6279 21.4943 31.9777 21.9258 31.9777H29.4447C29.8762 31.9777 30.2259 31.6279 30.2259 31.1964V26.291C30.2259 25.8595 29.8762 25.5098 29.4447 25.5098ZM28.6634 30.4152H22.707V27.0723H28.6634V30.4152Z" fill="#1B6CE1"/>
</g>
<defs>
<clipPath id="clip0_1_827">
<rect width="40" height="40" fill="white"/>
</clipPath>
</defs>
</svg>
