<svg width="47" height="47" viewBox="0 0 47 47" fill="none" xmlns="http://www.w3.org/2000/svg">
<path d="M29.3731 34.793C28.8953 34.793 28.4281 34.9347 28.0308 35.2002C27.6335 35.4656 27.3238 35.843 27.1409 36.2845C26.9581 36.7259 26.9102 37.2117 27.0035 37.6804C27.0967 38.1491 27.3268 38.5796 27.6647 38.9175C28.0026 39.2554 28.4331 39.4855 28.9018 39.5787C29.3704 39.672 29.8562 39.6241 30.2977 39.4412C30.7392 39.2584 31.1166 38.9487 31.382 38.5514C31.6475 38.154 31.7892 37.6869 31.7892 37.2091C31.7886 36.5685 31.5338 35.9543 31.0808 35.5013C30.6279 35.0484 30.0137 34.7936 29.3731 34.793ZM29.3731 38.7096C29.0763 38.7096 28.7862 38.6216 28.5395 38.4567C28.2927 38.2919 28.1004 38.0575 27.9868 37.7833C27.8732 37.5091 27.8435 37.2074 27.9014 36.9163C27.9593 36.6252 28.1022 36.3579 28.3121 36.148C28.5219 35.9381 28.7893 35.7952 29.0804 35.7373C29.3715 35.6794 29.6732 35.7091 29.9474 35.8227C30.2216 35.9363 30.4559 36.1286 30.6208 36.3754C30.7857 36.6222 30.8737 36.9123 30.8737 37.2091C30.8731 37.6068 30.7147 37.9881 30.4335 38.2694C30.1522 38.5507 29.7709 38.709 29.3731 38.7096Z" fill="#286465"/>
<path d="M7.83464 29.8639H17.1367V39.166C17.1367 39.8152 17.3946 40.4379 17.8537 40.897C18.3128 41.356 18.9354 41.6139 19.5846 41.6139H39.168C39.8172 41.6139 40.4398 41.356 40.8989 40.897C41.358 40.4379 41.6159 39.8152 41.6159 39.166V7.83268C41.6159 7.18345 41.358 6.56082 40.8989 6.10174C40.4398 5.64267 39.8172 5.38477 39.168 5.38477H19.5846C18.9354 5.38477 18.3128 5.64267 17.8537 6.10174C17.3946 6.56082 17.1367 7.18345 17.1367 7.83268V11.2598H7.83464C7.18541 11.2598 6.56277 11.5177 6.1037 11.9767C5.64462 12.4358 5.38672 13.0585 5.38672 13.7077V27.416C5.38672 28.0652 5.64462 28.6879 6.1037 29.147C6.56277 29.606 7.18541 29.8639 7.83464 29.8639ZM6.36589 27.416V15.666C6.36589 15.2765 6.52063 14.9029 6.79607 14.6275C7.07152 14.352 7.4451 14.1973 7.83464 14.1973H31.3346C31.7242 14.1973 32.0978 14.352 32.3732 14.6275C32.6486 14.9029 32.8034 15.2765 32.8034 15.666V17.1348H27.418C26.7687 17.1348 26.1461 17.3927 25.687 17.8517C25.228 18.3108 24.9701 18.9335 24.9701 19.5827V23.4993C24.9701 24.1486 25.228 24.7712 25.687 25.2303C26.1461 25.6894 26.7687 25.9473 27.418 25.9473H32.8034V27.416C32.8034 27.8056 32.6486 28.1791 32.3732 28.4546C32.0978 28.73 31.7242 28.8848 31.3346 28.8848H7.83464C7.4451 28.8848 7.07152 28.73 6.79607 28.4546C6.52063 28.1791 6.36589 27.8056 6.36589 27.416ZM20.0742 29.8639H31.3346C31.9839 29.8639 32.6065 29.606 33.0656 29.147C33.5246 28.6879 33.7826 28.0652 33.7826 27.416V25.8983C34.3355 25.7854 34.8324 25.485 35.1893 25.0479C35.5461 24.6107 35.741 24.0637 35.7409 23.4993V19.5827C35.741 19.0184 35.5461 18.4713 35.1893 18.0342C34.8324 17.597 34.3355 17.2966 33.7826 17.1837V13.7077C33.7826 13.0585 33.5246 12.4358 33.0656 11.9767C32.6065 11.5177 31.9839 11.2598 31.3346 11.2598H20.0742V8.81185C20.0742 8.682 20.1258 8.55748 20.2176 8.46566C20.3094 8.37385 20.434 8.32227 20.5638 8.32227H38.1888C38.3186 8.32227 38.4432 8.37385 38.535 8.46566C38.6268 8.55748 38.6784 8.682 38.6784 8.81185V32.3118C38.6784 32.4417 38.6268 32.5662 38.535 32.658C38.4432 32.7499 38.3186 32.8014 38.1888 32.8014H20.5638C20.434 32.8014 20.3094 32.7499 20.2176 32.658C20.1258 32.5662 20.0742 32.4417 20.0742 32.3118V29.8639ZM33.293 18.1139C33.6825 18.1139 34.0561 18.2687 34.3315 18.5441C34.607 18.8196 34.7617 19.1931 34.7617 19.5827V23.4993C34.7617 23.8889 34.607 24.2625 34.3315 24.5379C34.0561 24.8134 33.6825 24.9681 33.293 24.9681H27.418C27.0284 24.9681 26.6549 24.8134 26.3794 24.5379C26.104 24.2625 25.9492 23.8889 25.9492 23.4993V19.5827C25.9492 19.1931 26.104 18.8196 26.3794 18.5441C26.6549 18.2687 27.0284 18.1139 27.418 18.1139H33.293ZM18.1159 7.83268C18.1159 7.44315 18.2706 7.06956 18.5461 6.79412C18.8215 6.51867 19.1951 6.36393 19.5846 6.36393H39.168C39.5575 6.36393 39.9311 6.51867 40.2065 6.79412C40.482 7.06956 40.6367 7.44315 40.6367 7.83268V39.166C40.6367 39.5555 40.482 39.9291 40.2065 40.2046C39.9311 40.48 39.5575 40.6348 39.168 40.6348H19.5846C19.1951 40.6348 18.8215 40.48 18.5461 40.2046C18.2706 39.9291 18.1159 39.5555 18.1159 39.166V29.8639H19.0951V32.3118C19.0931 32.5053 19.1297 32.6971 19.2029 32.8762C19.276 33.0553 19.3841 33.218 19.5209 33.3548C19.6576 33.4916 19.8203 33.5997 19.9994 33.6728C20.1785 33.7459 20.3704 33.7826 20.5638 33.7806H38.1888C38.3822 33.7826 38.5741 33.7459 38.7532 33.6728C38.9323 33.5997 39.095 33.4916 39.2317 33.3548C39.3685 33.218 39.4766 33.0553 39.5497 32.8762C39.6229 32.6971 39.6595 32.5053 39.6576 32.3118V8.81185C39.6595 8.61842 39.6229 8.42655 39.5497 8.24747C39.4766 8.06838 39.3685 7.90569 39.2317 7.76891C39.095 7.63213 38.9323 7.52402 38.7532 7.4509C38.5741 7.37778 38.3822 7.34114 38.1888 7.3431H20.5638C20.3704 7.34114 20.1785 7.37778 19.9994 7.4509C19.8203 7.52402 19.6576 7.63213 19.5209 7.76891C19.3841 7.90569 19.276 8.06838 19.2029 8.24747C19.1297 8.42655 19.0931 8.61842 19.0951 8.81185V11.2598H18.1159V7.83268ZM7.83464 12.2389H31.3346C31.7242 12.2389 32.0978 12.3937 32.3732 12.6691C32.6486 12.9446 32.8034 13.3181 32.8034 13.7077C32.3802 13.3889 31.8645 13.217 31.3346 13.2181H7.83464C7.30481 13.217 6.78911 13.3889 6.36589 13.7077C6.36589 13.3181 6.52063 12.9446 6.79607 12.6691C7.07152 12.3937 7.4451 12.2389 7.83464 12.2389Z" fill="#1B6CE1"/>
<path d="M29.3737 23.9896C29.8579 23.9896 30.3311 23.846 30.7337 23.577C31.1362 23.3081 31.45 22.9257 31.6353 22.4784C31.8206 22.0311 31.869 21.539 31.7746 21.0641C31.6801 20.5893 31.447 20.1531 31.1046 19.8107C30.7623 19.4684 30.3261 19.2352 29.8513 19.1408C29.3764 19.0463 28.8842 19.0948 28.4369 19.2801C27.9896 19.4654 27.6073 19.7791 27.3383 20.1817C27.0693 20.5842 26.9258 21.0575 26.9258 21.5417C26.9258 22.1909 27.1837 22.8135 27.6428 23.2726C28.1018 23.7317 28.7245 23.9896 29.3737 23.9896ZM29.3737 20.0729C29.6642 20.0729 29.9482 20.1591 30.1897 20.3204C30.4312 20.4818 30.6195 20.7112 30.7306 20.9796C30.8418 21.248 30.8709 21.5433 30.8142 21.8282C30.7576 22.1131 30.6177 22.3748 30.4123 22.5802C30.2069 22.7856 29.9451 22.9255 29.6602 22.9822C29.3753 23.0389 29.08 23.0098 28.8116 22.8986C28.5433 22.7874 28.3139 22.5992 28.1525 22.3577C27.9911 22.1161 27.9049 21.8322 27.9049 21.5417C27.9049 21.1521 28.0597 20.7785 28.3351 20.5031C28.6106 20.2277 28.9842 20.0729 29.3737 20.0729Z" fill="#286465"/>
<path d="M9.79036 18.1139H13.707C13.8369 18.1139 13.9614 18.0624 14.0532 17.9705C14.145 17.8787 14.1966 17.7542 14.1966 17.6243C14.1966 17.4945 14.145 17.37 14.0532 17.2782C13.9614 17.1863 13.8369 17.1348 13.707 17.1348H9.79036C9.66052 17.1348 9.53599 17.1863 9.44418 17.2782C9.35236 17.37 9.30078 17.4945 9.30078 17.6243C9.30078 17.7542 9.35236 17.8787 9.44418 17.9705C9.53599 18.0624 9.66052 18.1139 9.79036 18.1139Z" fill="#286465"/>
<path d="M9.79036 22.0319H17.6237C17.7535 22.0319 17.8781 21.9803 17.9699 21.8885C18.0617 21.7967 18.1133 21.6722 18.1133 21.5423C18.1133 21.4125 18.0617 21.2879 17.9699 21.1961C17.8781 21.1043 17.7535 21.0527 17.6237 21.0527H9.79036C9.66052 21.0527 9.53599 21.1043 9.44418 21.1961C9.35236 21.2879 9.30078 21.4125 9.30078 21.5423C9.30078 21.6722 9.35236 21.7967 9.44418 21.8885C9.53599 21.9803 9.66052 22.0319 9.79036 22.0319Z" fill="#286465"/>
<path d="M13.707 24.9688H9.79036C9.66052 24.9688 9.53599 25.0203 9.44418 25.1121C9.35236 25.204 9.30078 25.3285 9.30078 25.4583C9.30078 25.5882 9.35236 25.7127 9.44418 25.8045C9.53599 25.8963 9.66052 25.9479 9.79036 25.9479H13.707C13.8369 25.9479 13.9614 25.8963 14.0532 25.8045C14.145 25.7127 14.1966 25.5882 14.1966 25.4583C14.1966 25.3285 14.145 25.204 14.0532 25.1121C13.9614 25.0203 13.8369 24.9688 13.707 24.9688Z" fill="#286465"/>
</svg>
