<svg width="32" height="31" viewBox="0 0 32 31" fill="none" xmlns="http://www.w3.org/2000/svg">
<path d="M9.93705 3.19411L11.4304 2.74495C12.2485 2.49826 13.1284 2.55764 13.9059 2.91202C14.6834 3.2664 15.3055 3.89156 15.6559 4.67086L16.8102 7.23788C17.1115 7.90818 17.1954 8.65599 17.0501 9.3764C16.9049 10.0968 16.5377 10.7536 16.0001 11.2548L14.087 13.0374C14.0311 13.0894 13.9957 13.1598 13.9872 13.2357C13.9309 13.7437 14.2751 14.7329 15.0698 16.1086C15.6457 17.108 16.1691 17.8106 16.6131 18.2034C16.9241 18.4785 17.0943 18.5374 17.1672 18.5169L19.7394 17.7299C20.4418 17.5151 21.1938 17.5254 21.8901 17.7595C22.5864 17.9936 23.1919 18.4396 23.6219 19.0352L25.2599 21.3079C25.7585 21.9989 25.9895 22.8473 25.91 23.6957C25.8304 24.5442 25.4458 25.3349 24.8273 25.9211L23.6923 26.9961C23.0905 27.5659 22.3515 27.9702 21.547 28.1696C20.7426 28.3689 19.9003 28.3566 19.1021 28.1337C15.5779 27.1496 12.4183 24.1757 9.5877 19.2732C6.7545 14.3644 5.75891 10.1363 6.67772 6.58781C6.88397 5.78972 7.29233 5.05822 7.86343 4.4638C8.43453 3.86939 9.14785 3.43211 9.93705 3.19411ZM10.4911 5.03301C10.0175 5.17544 9.58858 5.43748 9.24565 5.79385C8.90272 6.15023 8.65737 6.58894 8.53325 7.06769C7.76288 10.0519 8.64458 13.8001 11.25 18.3135C13.8529 22.8205 16.6541 25.4566 19.6191 26.2858C20.098 26.4194 20.6034 26.4267 21.086 26.3069C21.5686 26.1872 22.012 25.9445 22.3729 25.6025L23.5067 24.5276C23.788 24.2611 23.963 23.9016 23.9993 23.5159C24.0355 23.1301 23.9305 22.7444 23.7038 22.4302L22.0658 20.1588C21.8703 19.8877 21.5949 19.6847 21.2782 19.5782C20.9615 19.4717 20.6193 19.4671 20.2999 19.565L17.7213 20.3545C16.2241 20.7999 14.8664 19.5957 13.4075 17.0683C12.4235 15.3664 11.9653 14.0483 12.0805 13.0233C12.1394 12.4909 12.3876 11.9996 12.7779 11.6336L14.691 9.85098C14.9353 9.62306 15.102 9.3244 15.1679 8.9969C15.2338 8.6694 15.1954 8.3295 15.0583 8.02488L13.9053 5.45786C13.746 5.10363 13.4632 4.81947 13.1098 4.65841C12.7564 4.49735 12.3564 4.47039 11.9845 4.58256L10.4911 5.03301Z" fill="#02214D"/>
</svg>
