<svg width="28" height="29" viewBox="0 0 28 29" fill="none" xmlns="http://www.w3.org/2000/svg">
<g clip-path="url(#clip0_1_866)">
<path d="M11.8288 0.614349V4.2229C7.70225 5.00786 4.43685 8.27326 3.65188 12.3998H0.043335V16.237H3.65188C4.43685 20.3635 7.70225 23.6289 11.8288 24.4139V28.0224H15.6659V24.4139C19.7925 23.6289 23.0579 20.3635 23.8429 16.237H27.4514V12.3998H23.8429C23.0579 8.27326 19.7925 5.00786 15.6659 4.2229V0.614349H11.8288ZM13.7474 6.78117C14.7379 6.77845 15.7193 6.97156 16.6349 7.34938C17.5506 7.7272 18.3826 8.28228 19.083 8.98272C19.7835 9.68315 20.3386 10.5151 20.7164 11.4308C21.0942 12.3465 21.2873 13.3278 21.2846 14.3184C21.2873 15.3089 21.0942 16.2903 20.7164 17.206C20.3386 18.1216 19.7835 18.9536 19.083 19.6541C18.3826 20.3545 17.5506 20.9096 16.6349 21.2874C15.7193 21.6652 14.7379 21.8583 13.7474 21.8556C12.7568 21.8583 11.7755 21.6652 10.8598 21.2874C9.94411 20.9096 9.11214 20.3545 8.4117 19.6541C7.71127 18.9536 7.15618 18.1216 6.77836 17.206C6.40054 16.2903 6.20744 15.3089 6.21015 14.3184C6.20744 13.3278 6.40054 12.3465 6.77836 11.4308C7.15618 10.5151 7.71127 9.68315 8.4117 8.98272C9.11214 8.28228 9.94411 7.7272 10.8598 7.34938C11.7755 6.97156 12.7568 6.77845 13.7474 6.78117Z" fill="black"/>
</g>
<defs>
<clipPath id="clip0_1_866">
<rect width="27.4081" height="27.4081" fill="white" transform="translate(0.043335 0.614349)"/>
</clipPath>
</defs>
</svg>
