<svg width="88" height="88" viewBox="0 0 88 88" fill="none" xmlns="http://www.w3.org/2000/svg">
<ellipse cx="43.9851" cy="44" rx="43.985" ry="44" fill="url(#paint0_linear_1_427)" fill-opacity="0.3"/>
<path d="M44.0001 20C39.2533 20 34.6132 21.4076 30.6664 24.0447C26.7196 26.6819 23.6435 30.4302 21.827 34.8156C20.0105 39.201 19.5352 44.0266 20.4612 48.6822C21.3873 53.3377 23.673 57.6141 27.0295 60.9706C30.386 64.327 34.6624 66.6128 39.3179 67.5388C43.9734 68.4649 48.799 67.9896 53.1845 66.1731C57.5699 64.3566 61.3182 61.2805 63.9553 57.3337C66.5925 53.3869 68.0001 48.7468 68.0001 44C68.0001 37.6348 65.4715 31.5303 60.9706 27.0294C56.4698 22.5286 50.3653 20 44.0001 20V20ZM56.8251 60.575L54.9501 60.2C48.8751 59.075 48.5001 55.925 48.5001 54.65V54.5C51.568 54.3082 54.6086 53.8056 57.5751 53C55.1001 50.525 53.0001 49.325 53.0001 38.9C53.0001 28.475 42.5001 30.5 42.5001 30.5C35.0001 30.5 35.0001 38.6 35.0001 38.6C35.0001 49.025 33.0501 50.45 30.5751 53C33.4908 53.8047 36.4815 54.3074 39.5001 54.5V54.725C39.5001 55.925 39.1251 59.15 33.0501 60.275L31.3251 60.725C27.8201 58.0793 25.2327 54.4014 23.9268 50.2086C22.621 46.0158 22.6624 41.5191 24.0453 37.3511C25.4282 33.183 28.0829 29.5534 31.6361 26.9727C35.1892 24.3921 39.462 22.9902 43.8534 22.9644C48.2448 22.9385 52.5337 24.29 56.117 26.8287C59.7003 29.3674 62.3975 32.9656 63.8293 37.117C65.2612 41.2685 65.3555 45.7644 64.0991 49.9722C62.8427 54.1801 60.2987 57.8882 56.8251 60.575Z" fill="#FE56C6"/>
<defs>
<linearGradient id="paint0_linear_1_427" x1="43.9851" y1="0" x2="43.9851" y2="88" gradientUnits="userSpaceOnUse">
<stop stop-color="#FE23C7"/>
<stop offset="1" stop-color="#FFB953"/>
</linearGradient>
</defs>
</svg>
