<svg width="44" height="49" viewBox="0 0 44 49" fill="none" xmlns="http://www.w3.org/2000/svg">
<path d="M42 45.0298H40.5V15.0298H34.5V45.0298H30V22.5298H24V45.0298H19.5V30.0298H13.5V45.0298H9V37.5298H3V45.0298H1.5C1.10218 45.0298 0.720644 45.1878 0.43934 45.4691C0.158035 45.7504 0 46.132 0 46.5298C0 46.9276 0.158035 47.3091 0.43934 47.5904C0.720644 47.8717 1.10218 48.0298 1.5 48.0298H42C42.3978 48.0298 42.7794 47.8717 43.0607 47.5904C43.342 47.3091 43.5 46.9276 43.5 46.5298C43.5 46.132 43.342 45.7504 43.0607 45.4691C42.7794 45.1878 42.3978 45.0298 42 45.0298Z" fill="#FE56C6"/>
<path d="M3.75 33.0297C4.07456 33.0297 4.39036 32.9244 4.65 32.7297L37.95 6.40471L37.575 10.3797C37.5543 10.5769 37.5729 10.7762 37.6297 10.9661C37.6864 11.1561 37.7803 11.3329 37.9059 11.4863C38.0314 11.6397 38.1861 11.7667 38.361 11.86C38.536 11.9533 38.7276 12.011 38.925 12.0297H39.075C39.4482 12.0316 39.8086 11.8943 40.086 11.6447C40.3633 11.395 40.5377 11.051 40.575 10.6797L41.4 1.82971L32.55 0.029712C32.1522 -0.0498529 31.739 0.0318762 31.4015 0.25692C31.0639 0.481963 30.8296 0.831887 30.75 1.22971C30.6704 1.62754 30.7522 2.04067 30.9772 2.37824C31.2023 2.71581 31.5522 2.95015 31.95 3.02971L36.3 3.92971L2.85 30.3297C2.59814 30.5186 2.4121 30.782 2.31823 31.0825C2.22436 31.383 2.22742 31.7054 2.32698 32.0041C2.42653 32.3027 2.61754 32.5625 2.87293 32.7466C3.12833 32.9307 3.43518 33.0297 3.75 33.0297Z" fill="#FE56C6"/>
</svg>
