<svg width="45" height="42" viewBox="0 0 45 42" fill="none" xmlns="http://www.w3.org/2000/svg">
<path d="M42 0H40.8L40.425 0.225H40.275L39.9 0.525H39.825C39.51 0.848809 39.2722 1.23957 39.1294 1.66813C38.9865 2.09668 38.9423 2.55196 39 3V4.5H45V3C45 2.20435 44.6839 1.44129 44.1213 0.87868C43.5587 0.31607 42.7957 0 42 0ZM21 34.5H0V36C0 37.5913 0.632141 39.1174 1.75736 40.2426C2.88258 41.3679 4.4087 42 6 42H23.325C21.8371 40.3549 21.0091 38.2182 21 36V34.5Z" fill="#FE56C6"/>
<path d="M10.5 2.99995V31.5H24V36C24 37.5913 24.6321 39.1174 25.7574 40.2426C26.8826 41.3678 28.4087 42 30 42C31.5913 42 33.1174 41.3678 34.2426 40.2426C35.3679 39.1174 36 37.5913 36 36V1.27495L36.15 0.899951L36.3 0.449951L36.525 0.0749513H13.5C12.7172 0.0747066 11.9653 0.380461 11.4048 0.926951C10.8443 1.47344 10.5196 2.21737 10.5 2.99995ZM17.325 4.49995H29.325C29.7228 4.49995 30.1044 4.65799 30.3857 4.93929C30.667 5.2206 30.825 5.60213 30.825 5.99995C30.825 6.39778 30.667 6.77931 30.3857 7.06061C30.1044 7.34192 29.7228 7.49995 29.325 7.49995H17.325C16.9272 7.49995 16.5456 7.34192 16.2643 7.06061C15.983 6.77931 15.825 6.39778 15.825 5.99995C15.825 5.60213 15.983 5.2206 16.2643 4.93929C16.5456 4.65799 16.9272 4.49995 17.325 4.49995ZM17.325 10.5H26.325C26.7228 10.5 27.1044 10.658 27.3857 10.9393C27.667 11.2206 27.825 11.6021 27.825 12C27.825 12.3978 27.667 12.7793 27.3857 13.0606C27.1044 13.3419 26.7228 13.5 26.325 13.5H17.325C16.9272 13.5 16.5456 13.3419 16.2643 13.0606C15.983 12.7793 15.825 12.3978 15.825 12C15.825 11.6021 15.983 11.2206 16.2643 10.9393C16.5456 10.658 16.9272 10.5 17.325 10.5ZM17.325 16.5H29.325C29.7228 16.5 30.1044 16.658 30.3857 16.9393C30.667 17.2206 30.825 17.6021 30.825 18C30.825 18.3978 30.667 18.7793 30.3857 19.0606C30.1044 19.3419 29.7228 19.5 29.325 19.5H17.325C16.9272 19.5 16.5456 19.3419 16.2643 19.0606C15.983 18.7793 15.825 18.3978 15.825 18C15.825 17.6021 15.983 17.2206 16.2643 16.9393C16.5456 16.658 16.9272 16.5 17.325 16.5ZM17.325 22.5H26.325C26.7228 22.5 27.1044 22.658 27.3857 22.9393C27.667 23.2206 27.825 23.6021 27.825 24C27.825 24.3978 27.667 24.7793 27.3857 25.0606C27.1044 25.3419 26.7228 25.5 26.325 25.5H17.325C16.9272 25.5 16.5456 25.3419 16.2643 25.0606C15.983 24.7793 15.825 24.3978 15.825 24C15.825 23.6021 15.983 23.2206 16.2643 22.9393C16.5456 22.658 16.9272 22.5 17.325 22.5Z" fill="#FE56C6"/>
</svg>
