<svg width="48" height="48" viewBox="0 0 48 48" fill="none" xmlns="http://www.w3.org/2000/svg">
<g clip-path="url(#clip0_1_228)">
<path d="M36 20H48L42 12L36 20ZM36 28H48L42 36L36 28Z" fill="#D6B1FF"/>
<path d="M2 0H14V48H2C1.46957 48 0.960858 47.7893 0.585785 47.4142C0.210712 47.0391 0 46.5304 0 46V2C0 1.46957 0.210712 0.960858 0.585785 0.585785C0.960858 0.210712 1.46957 0 2 0Z" fill="#1B6CE1"/>
<path d="M18 0H30C30.5304 0 31.0391 0.210712 31.4142 0.585785C31.7893 0.960858 32 1.46957 32 2V46C32 46.5304 31.7893 47.0391 31.4142 47.4142C31.0391 47.7893 30.5304 48 30 48H18V0Z" fill="#1B6CE1"/>
</g>
<defs>
<clipPath id="clip0_1_228">
<rect width="48" height="48" fill="white"/>
</clipPath>
</defs>
</svg>
