<svg width="198" height="187" viewBox="0 0 198 187" fill="none" xmlns="http://www.w3.org/2000/svg">
<mask id="mask0_1_374" style="mask-type:alpha" maskUnits="userSpaceOnUse" x="0" y="0" width="199" height="187">
<rect x="0.919922" width="197.08" height="187" fill="#C4C4C4"/>
</mask>
<g mask="url(#mask0_1_374)">
<mask id="mask1_1_374" style="mask-type:alpha" maskUnits="userSpaceOnUse" x="-19" y="-186" width="217" height="372">
<rect x="-18.0732" y="185.55" width="371.101" height="215.78" transform="rotate(-90 -18.0732 185.55)" fill="url(#paint0_linear_1_374)"/>
</mask>
<g mask="url(#mask1_1_374)">
<ellipse cx="197.707" cy="-0.000165475" rx="120.281" ry="120.241" transform="rotate(-90 197.707 -0.000165475)" fill="url(#paint1_linear_1_374)" fill-opacity="0.4"/>
<ellipse cx="197.707" cy="-2.18207e-05" rx="150.119" ry="150.068" transform="rotate(-90 197.707 -2.18207e-05)" fill="url(#paint2_linear_1_374)" fill-opacity="0.3"/>
<ellipse cx="197.707" cy="-0.000191053" rx="181.821" ry="181.759" transform="rotate(-90 197.707 -0.000191053)" fill="url(#paint3_linear_1_374)" fill-opacity="0.2"/>
<path d="M197.707 -76.574C182.567 -76.574 167.768 -72.083 155.179 -63.6689C142.591 -55.2549 132.78 -43.2956 126.986 -29.3036C121.192 -15.3115 119.676 0.0849534 122.63 14.9388C125.584 29.7927 132.874 43.4369 143.58 54.146C154.285 64.855 167.925 72.148 182.773 75.1026C197.622 78.0572 213.013 76.5408 227.001 70.7451C240.988 64.9494 252.943 55.1347 261.354 42.5422C269.766 29.9497 274.255 15.1449 274.255 9.35086e-07L197.707 4.28224e-06L197.707 -76.574Z" fill="url(#paint4_linear_1_374)" fill-opacity="0.5"/>
</g>
</g>
<defs>
<linearGradient id="paint0_linear_1_374" x1="-18.0732" y1="206.629" x2="276.069" y2="416.079" gradientUnits="userSpaceOnUse">
<stop stop-color="#01204C"/>
<stop offset="1" stop-color="#1A6CE0"/>
</linearGradient>
<linearGradient id="paint1_linear_1_374" x1="197.707" y1="-120.241" x2="197.707" y2="120.24" gradientUnits="userSpaceOnUse">
<stop stop-color="#FE23C7"/>
<stop offset="1" stop-color="#FFB953"/>
</linearGradient>
<linearGradient id="paint2_linear_1_374" x1="197.707" y1="-150.068" x2="197.707" y2="150.068" gradientUnits="userSpaceOnUse">
<stop stop-color="#FE23C7"/>
<stop offset="1" stop-color="#FFB953"/>
</linearGradient>
<linearGradient id="paint3_linear_1_374" x1="197.707" y1="-181.759" x2="197.707" y2="181.759" gradientUnits="userSpaceOnUse">
<stop stop-color="#FE23C7"/>
<stop offset="1" stop-color="#FFB953"/>
</linearGradient>
<linearGradient id="paint4_linear_1_374" x1="121.159" y1="7.62939e-06" x2="274.255" y2="9.39637e-07" gradientUnits="userSpaceOnUse">
<stop stop-color="#FE23C7"/>
<stop offset="1" stop-color="#FFB953"/>
</linearGradient>
</defs>
</svg>
