<svg width="48" height="48" viewBox="0 0 48 48" fill="none" xmlns="http://www.w3.org/2000/svg">
<g clip-path="url(#clip0_1_782)">
<mask id="path-1-inside-1_1_782" fill="white">
<path d="M21.6007 15.5984C21.1583 15.5984 20.8008 15.9568 20.8008 16.3983V26.3981C20.8008 26.8396 21.1583 27.198 21.6007 27.198H45.6C46.0424 27.198 46.4 26.8396 46.4 26.3981V16.3983C46.4 15.9568 46.0424 15.5984 45.6 15.5984C45.1576 15.5984 44.8001 15.9568 44.8001 16.3983V25.598H33.6004V15.1984C33.6004 14.7568 33.2428 14.3984 32.8004 14.3984H26.4006C25.9582 14.3984 25.6006 14.7568 25.6006 15.1984V25.598H22.4008V16.3983C22.4007 15.9568 22.0431 15.5984 21.6007 15.5984ZM27.2005 15.9983H32.0004V19.9982H31.2004C30.758 19.9982 30.4005 20.3566 30.4005 20.7982C30.4005 21.2397 30.758 21.5981 31.2004 21.5981H32.0004V25.598H27.2005V15.9983Z"/>
</mask>
<path d="M21.6007 15.5984C21.1583 15.5984 20.8008 15.9568 20.8008 16.3983V26.3981C20.8008 26.8396 21.1583 27.198 21.6007 27.198H45.6C46.0424 27.198 46.4 26.8396 46.4 26.3981V16.3983C46.4 15.9568 46.0424 15.5984 45.6 15.5984C45.1576 15.5984 44.8001 15.9568 44.8001 16.3983V25.598H33.6004V15.1984C33.6004 14.7568 33.2428 14.3984 32.8004 14.3984H26.4006C25.9582 14.3984 25.6006 14.7568 25.6006 15.1984V25.598H22.4008V16.3983C22.4007 15.9568 22.0431 15.5984 21.6007 15.5984ZM27.2005 15.9983H32.0004V19.9982H31.2004C30.758 19.9982 30.4005 20.3566 30.4005 20.7982C30.4005 21.2397 30.758 21.5981 31.2004 21.5981H32.0004V25.598H27.2005V15.9983Z" fill="#052B61"/>
<path d="M44.8001 25.598V27.598H46.8001V25.598H44.8001ZM33.6004 25.598H31.6004V27.598H33.6004V25.598ZM25.6006 25.598V27.598H27.6006V25.598H25.6006ZM22.4008 25.598H20.4008V27.598H22.4008V25.598ZM22.4008 16.3983H24.4008V16.3979L22.4008 16.3983ZM27.2005 15.9983V13.9983H25.2005V15.9983H27.2005ZM32.0004 15.9983H34.0004V13.9983H32.0004V15.9983ZM32.0004 19.9982V21.9982H34.0004V19.9982H32.0004ZM32.0004 21.5981H34.0004V19.5981H32.0004V21.5981ZM32.0004 25.598V27.598H34.0004V25.598H32.0004ZM27.2005 25.598H25.2005V27.598H27.2005V25.598ZM21.6007 13.5984C20.0524 13.5984 18.8008 14.8536 18.8008 16.3983H22.8008C22.8008 17.06 22.2643 17.5984 21.6007 17.5984V13.5984ZM18.8008 16.3983V26.3981H22.8008V16.3983H18.8008ZM18.8008 26.3981C18.8008 27.9428 20.0524 29.198 21.6007 29.198V25.198C22.2643 25.198 22.8008 25.7364 22.8008 26.3981H18.8008ZM21.6007 29.198H45.6V25.198H21.6007V29.198ZM45.6 29.198C47.1483 29.198 48.4 27.9428 48.4 26.3981H44.4C44.4 25.7364 44.9365 25.198 45.6 25.198V29.198ZM48.4 26.3981V16.3983H44.4V26.3981H48.4ZM48.4 16.3983C48.4 14.8536 47.1483 13.5984 45.6 13.5984V17.5984C44.9365 17.5984 44.4 17.06 44.4 16.3983H48.4ZM45.6 13.5984C44.0517 13.5984 42.8001 14.8536 42.8001 16.3983H46.8001C46.8001 17.06 46.2636 17.5984 45.6 17.5984V13.5984ZM42.8001 16.3983V25.598H46.8001V16.3983H42.8001ZM44.8001 23.598H33.6004V27.598H44.8001V23.598ZM35.6004 25.598V15.1984H31.6004V25.598H35.6004ZM35.6004 15.1984C35.6004 13.6536 34.3488 12.3984 32.8004 12.3984V16.3984C32.1369 16.3984 31.6004 15.86 31.6004 15.1984H35.6004ZM32.8004 12.3984H26.4006V16.3984H32.8004V12.3984ZM26.4006 12.3984C24.8523 12.3984 23.6006 13.6536 23.6006 15.1984H27.6006C27.6006 15.86 27.0641 16.3984 26.4006 16.3984V12.3984ZM23.6006 15.1984V25.598H27.6006V15.1984H23.6006ZM25.6006 23.598H22.4008V27.598H25.6006V23.598ZM24.4008 25.598V16.3983H20.4008V25.598H24.4008ZM24.4008 16.3979C24.4004 14.8536 23.1491 13.5984 21.6007 13.5984V17.5984C20.9371 17.5984 20.4009 17.06 20.4008 16.3988L24.4008 16.3979ZM27.2005 17.9983H32.0004V13.9983H27.2005V17.9983ZM30.0004 15.9983V19.9982H34.0004V15.9983H30.0004ZM32.0004 17.9982H31.2004V21.9982H32.0004V17.9982ZM31.2004 17.9982C29.6521 17.9982 28.4005 19.2534 28.4005 20.7982H32.4005C32.4005 21.4598 31.864 21.9982 31.2004 21.9982V17.9982ZM28.4005 20.7982C28.4005 22.3429 29.6521 23.5981 31.2004 23.5981V19.5981C31.864 19.5981 32.4005 20.1365 32.4005 20.7982H28.4005ZM31.2004 23.5981H32.0004V19.5981H31.2004V23.5981ZM30.0004 21.5981V25.598H34.0004V21.5981H30.0004ZM32.0004 23.598H27.2005V27.598H32.0004V23.598ZM29.2005 25.598V15.9983H25.2005V25.598H29.2005Z" fill="#2F80ED" mask="url(#path-1-inside-1_1_782)"/>
<mask id="path-3-inside-2_1_782" fill="white">
<path d="M19.6927 15.1384C19.7919 15.1792 19.8959 15.1993 19.9991 15.1993C20.2071 15.1993 20.4118 15.1177 20.5646 14.9649L33.6011 1.92926L46.6328 14.9649C46.8623 15.1945 47.2063 15.2633 47.5047 15.1385C47.8031 15.0145 47.9983 14.7226 47.9983 14.3993V2.39969C47.9983 1.95814 47.6407 1.59974 47.1983 1.59974H39.1986C38.7562 1.59974 38.3987 1.95814 38.3987 2.39969C38.3987 2.84124 38.7562 3.19963 39.1986 3.19963H46.3984V12.4674L34.1691 0.234124C33.8691 -0.0658672 33.3331 -0.0658672 33.0331 0.234124L20.7991 12.4681V3.19963H24.799C25.2414 3.19963 25.599 2.84124 25.599 2.39969V1.59974H27.199V2.39969C27.199 2.84124 27.5565 3.19963 27.9989 3.19963C28.4413 3.19963 28.7988 2.84124 28.7988 2.39969V0.799701C28.7988 0.358152 28.4413 -0.000244141 27.9989 -0.000244141H24.799C24.3566 -0.000244141 23.9991 0.358152 23.9991 0.799701V1.59965H19.9992C19.5568 1.59965 19.1992 1.95804 19.1992 2.39959V14.3992C19.1991 14.7225 19.3936 15.0145 19.6927 15.1384Z"/>
</mask>
<path d="M19.6927 15.1384C19.7919 15.1792 19.8959 15.1993 19.9991 15.1993C20.2071 15.1993 20.4118 15.1177 20.5646 14.9649L33.6011 1.92926L46.6328 14.9649C46.8623 15.1945 47.2063 15.2633 47.5047 15.1385C47.8031 15.0145 47.9983 14.7226 47.9983 14.3993V2.39969C47.9983 1.95814 47.6407 1.59974 47.1983 1.59974H39.1986C38.7562 1.59974 38.3987 1.95814 38.3987 2.39969C38.3987 2.84124 38.7562 3.19963 39.1986 3.19963H46.3984V12.4674L34.1691 0.234124C33.8691 -0.0658672 33.3331 -0.0658672 33.0331 0.234124L20.7991 12.4681V3.19963H24.799C25.2414 3.19963 25.599 2.84124 25.599 2.39969V1.59974H27.199V2.39969C27.199 2.84124 27.5565 3.19963 27.9989 3.19963C28.4413 3.19963 28.7988 2.84124 28.7988 2.39969V0.799701C28.7988 0.358152 28.4413 -0.000244141 27.9989 -0.000244141H24.799C24.3566 -0.000244141 23.9991 0.358152 23.9991 0.799701V1.59965H19.9992C19.5568 1.59965 19.1992 1.95804 19.1992 2.39959V14.3992C19.1991 14.7225 19.3936 15.0145 19.6927 15.1384Z" fill="#052B61"/>
<path d="M19.6927 15.1384L18.9272 16.9862L18.9322 16.9882L19.6927 15.1384ZM20.5646 14.9649L19.1505 13.5507L19.1504 13.5507L20.5646 14.9649ZM33.6011 1.92926L35.0156 0.515267L33.6014 -0.899338L32.187 0.515003L33.6011 1.92926ZM46.6328 14.9649L45.2183 16.3789L45.2185 16.3791L46.6328 14.9649ZM47.5047 15.1385L46.7371 13.2917L46.7331 13.2934L47.5047 15.1385ZM46.3984 3.19963H48.3984V1.19963H46.3984V3.19963ZM46.3984 12.4674L44.9839 13.8814L48.3984 17.2969V12.4674H46.3984ZM34.1691 0.234124L35.5835 -1.17986L35.5833 -1.18009L34.1691 0.234124ZM20.7991 12.4681H18.7991V17.2966L22.2133 13.8824L20.7991 12.4681ZM20.7991 3.19963V1.19963H18.7991V3.19963H20.7991ZM25.599 1.59974V-0.40026H23.599V1.59974H25.599ZM27.199 1.59974H29.199V-0.40026H27.199V1.59974ZM23.9991 1.59965V3.59965H25.9991V1.59965H23.9991ZM19.1992 14.3992L21.1992 14.3998V14.3992H19.1992ZM18.9322 16.9882C19.2736 17.1286 19.636 17.1993 19.9991 17.1993V13.1993C20.1557 13.1993 20.3102 13.2299 20.4532 13.2887L18.9322 16.9882ZM19.9991 17.1993C20.7274 17.1993 21.4439 16.9141 21.9789 16.3791L19.1504 13.5507C19.3798 13.3213 19.6868 13.1993 19.9991 13.1993V17.1993ZM21.9788 16.3792L35.0153 3.34352L32.187 0.515003L19.1505 13.5507L21.9788 16.3792ZM32.1867 3.34326L45.2183 16.3789L48.0472 13.5509L35.0156 0.515267L32.1867 3.34326ZM45.2185 16.3791C46.017 17.1776 47.223 17.4241 48.2763 16.9837L46.7331 13.2934C47.1896 13.1025 47.7077 13.2114 48.047 13.5507L45.2185 16.3791ZM48.2723 16.9854C49.3155 16.5518 49.9983 15.5321 49.9983 14.3993H45.9983C45.9983 13.913 46.2907 13.4772 46.7371 13.2917L48.2723 16.9854ZM49.9983 14.3993V2.39969H45.9983V14.3993H49.9983ZM49.9983 2.39969C49.9983 0.854944 48.7467 -0.40026 47.1983 -0.40026V3.59974C46.5348 3.59974 45.9983 3.06133 45.9983 2.39969H49.9983ZM47.1983 -0.40026H39.1986V3.59974H47.1983V-0.40026ZM39.1986 -0.40026C37.6503 -0.40026 36.3987 0.854944 36.3987 2.39969H40.3987C40.3987 3.06133 39.8622 3.59974 39.1986 3.59974V-0.40026ZM36.3987 2.39969C36.3987 3.94443 37.6503 5.19963 39.1986 5.19963V1.19963C39.8622 1.19963 40.3987 1.73804 40.3987 2.39969H36.3987ZM39.1986 5.19963H46.3984V1.19963H39.1986V5.19963ZM44.3984 3.19963V12.4674H48.3984V3.19963H44.3984ZM47.8128 11.0534L35.5835 -1.17986L32.7546 1.64811L44.9839 13.8814L47.8128 11.0534ZM35.5833 -1.18009C34.5022 -2.26113 32.7 -2.26113 31.6189 -1.18009L34.4473 1.64834C34.1743 1.9214 33.8506 2.00913 33.6011 2.00913C33.3516 2.00913 33.0279 1.9214 32.7548 1.64834L35.5833 -1.18009ZM31.6189 -1.18009L19.3849 11.0539L22.2133 13.8824L34.4473 1.64834L31.6189 -1.18009ZM22.7991 12.4681V3.19963H18.7991V12.4681H22.7991ZM20.7991 5.19963H24.799V1.19963H20.7991V5.19963ZM24.799 5.19963C26.3474 5.19963 27.599 3.94443 27.599 2.39969H23.599C23.599 1.73804 24.1355 1.19963 24.799 1.19963V5.19963ZM27.599 2.39969V1.59974H23.599V2.39969H27.599ZM25.599 3.59974H27.199V-0.40026H25.599V3.59974ZM25.199 1.59974V2.39969H29.199V1.59974H25.199ZM25.199 2.39969C25.199 3.94443 26.4506 5.19963 27.9989 5.19963V1.19963C28.6625 1.19963 29.199 1.73804 29.199 2.39969H25.199ZM27.9989 5.19963C29.5472 5.19963 30.7988 3.94444 30.7988 2.39969H26.7988C26.7988 1.73803 27.3354 1.19963 27.9989 1.19963V5.19963ZM30.7988 2.39969V0.799701H26.7988V2.39969H30.7988ZM30.7988 0.799701C30.7988 -0.74505 29.5472 -2.00024 27.9989 -2.00024V1.99976C27.3354 1.99976 26.7988 1.46135 26.7988 0.799701H30.7988ZM27.9989 -2.00024H24.799V1.99976H27.9989V-2.00024ZM24.799 -2.00024C23.2507 -2.00024 21.9991 -0.745041 21.9991 0.799701H25.9991C25.9991 1.46134 25.4626 1.99976 24.799 1.99976V-2.00024ZM21.9991 0.799701V1.59965H25.9991V0.799701H21.9991ZM23.9991 -0.400354H19.9992V3.59965H23.9991V-0.400354ZM19.9992 -0.400354C18.4508 -0.400354 17.1992 0.854846 17.1992 2.39959H21.1992C21.1992 3.06124 20.6627 3.59965 19.9992 3.59965V-0.400354ZM17.1992 2.39959V14.3992H21.1992V2.39959H17.1992ZM17.1992 14.3987C17.1989 15.5291 17.8789 16.5518 18.9272 16.9861L20.4582 13.2907C20.9082 13.4772 21.1994 13.9158 21.1992 14.3998L17.1992 14.3987Z" fill="#2F80ED" mask="url(#path-3-inside-2_1_782)"/>
<mask id="path-5-inside-3_1_782" fill="white">
<path d="M40.799 22.3982C41.2414 22.3982 41.599 22.0398 41.599 21.5982V15.1984C41.599 14.7568 41.2414 14.3984 40.799 14.3984H35.9992C35.5568 14.3984 35.1992 14.7568 35.1992 15.1984V21.5982C35.1992 22.0398 35.5568 22.3982 35.9992 22.3982H40.799ZM36.7991 15.9983H39.999V20.7982H36.7991V15.9983Z"/>
</mask>
<path d="M40.799 22.3982C41.2414 22.3982 41.599 22.0398 41.599 21.5982V15.1984C41.599 14.7568 41.2414 14.3984 40.799 14.3984H35.9992C35.5568 14.3984 35.1992 14.7568 35.1992 15.1984V21.5982C35.1992 22.0398 35.5568 22.3982 35.9992 22.3982H40.799ZM36.7991 15.9983H39.999V20.7982H36.7991V15.9983Z" fill="#052B61"/>
<path d="M36.7991 15.9983V13.9983H34.7991V15.9983H36.7991ZM39.999 15.9983H41.999V13.9983H39.999V15.9983ZM39.999 20.7982V22.7982H41.999V20.7982H39.999ZM36.7991 20.7982H34.7991V22.7982H36.7991V20.7982ZM40.799 24.3982C42.3474 24.3982 43.599 23.143 43.599 21.5982H39.599C39.599 20.9366 40.1355 20.3982 40.799 20.3982V24.3982ZM43.599 21.5982V15.1984H39.599V21.5982H43.599ZM43.599 15.1984C43.599 13.6536 42.3474 12.3984 40.799 12.3984V16.3984C40.1355 16.3984 39.599 15.86 39.599 15.1984H43.599ZM40.799 12.3984H35.9992V16.3984H40.799V12.3984ZM35.9992 12.3984C34.4508 12.3984 33.1992 13.6536 33.1992 15.1984H37.1992C37.1992 15.86 36.6627 16.3984 35.9992 16.3984V12.3984ZM33.1992 15.1984V21.5982H37.1992V15.1984H33.1992ZM33.1992 21.5982C33.1992 23.143 34.4508 24.3982 35.9992 24.3982V20.3982C36.6627 20.3982 37.1992 20.9366 37.1992 21.5982H33.1992ZM35.9992 24.3982H40.799V20.3982H35.9992V24.3982ZM36.7991 17.9983H39.999V13.9983H36.7991V17.9983ZM37.999 15.9983V20.7982H41.999V15.9983H37.999ZM39.999 18.7982H36.7991V22.7982H39.999V18.7982ZM38.7991 20.7982V15.9983H34.7991V20.7982H38.7991Z" fill="#2F80ED" mask="url(#path-5-inside-3_1_782)"/>
<path d="M2.80153 42.5977C2.91082 42.5977 3.00149 42.6883 3.00149 42.7976C3.00149 42.9069 2.91081 42.9976 2.80153 42.9976C2.69224 42.9976 2.60156 42.9069 2.60156 42.7976C2.60156 42.6883 2.69224 42.5977 2.80153 42.5977Z" fill="#052B61" stroke="#2F80ED" stroke-width="2"/>
<path d="M19.9692 37.7965L19.9699 37.7966L19.9692 37.7965Z" fill="#052B61" stroke="#2F80ED" stroke-width="2"/>
<mask id="path-9-inside-4_1_782" fill="white">
<path d="M10.4015 30.3988H16.8014C17.7349 30.3988 19.3213 31.5892 20.7212 32.6387C22.4763 33.9555 24.1347 35.1987 25.601 35.1987H30.4009C31.616 35.1987 32.2192 35.7498 32.2352 35.7642C32.3912 35.9202 32.5961 35.9986 32.8008 35.9986C33.0057 35.9986 33.2104 35.9202 33.3664 35.7642C33.6791 35.4514 33.6791 34.9458 33.3664 34.6331C33.2608 34.5275 32.2785 33.5987 30.4009 33.5987H25.601C24.6675 33.5987 23.0811 32.4083 21.6812 31.3588C19.926 30.042 18.2677 28.7988 16.8014 28.7988H10.4015C9.95911 28.7988 9.60156 29.1572 9.60156 29.5988C9.60156 30.0403 9.95911 30.3988 10.4015 30.3988Z"/>
</mask>
<path d="M10.4015 30.3988H16.8014C17.7349 30.3988 19.3213 31.5892 20.7212 32.6387C22.4763 33.9555 24.1347 35.1987 25.601 35.1987H30.4009C31.616 35.1987 32.2192 35.7498 32.2352 35.7642C32.3912 35.9202 32.5961 35.9986 32.8008 35.9986C33.0057 35.9986 33.2104 35.9202 33.3664 35.7642C33.6791 35.4514 33.6791 34.9458 33.3664 34.6331C33.2608 34.5275 32.2785 33.5987 30.4009 33.5987H25.601C24.6675 33.5987 23.0811 32.4083 21.6812 31.3588C19.926 30.042 18.2677 28.7988 16.8014 28.7988H10.4015C9.95911 28.7988 9.60156 29.1572 9.60156 29.5988C9.60156 30.0403 9.95911 30.3988 10.4015 30.3988Z" fill="#052B61"/>
<path d="M20.7212 32.6387L21.9215 31.0389L21.9209 31.0385L20.7212 32.6387ZM32.2352 35.7642L33.6495 34.35L33.6125 34.3131L33.5737 34.2781L32.2352 35.7642ZM33.3664 35.7642L34.7806 37.1785L34.7808 37.1783L33.3664 35.7642ZM33.3664 34.6331L34.7806 33.2189L33.3664 34.6331ZM21.6812 31.3588L20.4809 32.9586L20.4815 32.959L21.6812 31.3588ZM10.4015 32.3988H16.8014V28.3988H10.4015V32.3988ZM16.8014 32.3988C16.6481 32.3988 16.6359 32.3602 16.8301 32.4425C16.9997 32.5144 17.2316 32.6376 17.5288 32.8227C18.1296 33.197 18.8035 33.7007 19.5215 34.239L21.9209 31.0385C21.239 30.5273 20.4197 29.911 19.6439 29.4277C19.2529 29.184 18.8257 28.944 18.3915 28.7599C17.982 28.5862 17.4214 28.3988 16.8014 28.3988V32.3988ZM19.521 34.2385C20.3741 34.8786 21.3257 35.5956 22.2638 36.1413C23.1815 36.6751 24.3356 37.1987 25.601 37.1987V33.1987C25.4001 33.1987 24.992 33.1007 24.275 32.6837C23.5786 32.2786 22.8234 31.7156 21.9215 31.0389L19.521 34.2385ZM25.601 37.1987H30.4009V33.1987H25.601V37.1987ZM30.4009 37.1987C30.6961 37.1987 30.8678 37.2637 30.9347 37.2943C30.9712 37.311 30.9851 37.3216 30.9765 37.3157C30.9722 37.3127 30.9621 37.3055 30.9462 37.2926C30.9382 37.2862 30.9289 37.2785 30.9185 37.2695C30.9065 37.2592 30.8959 37.2496 30.8968 37.2504L33.5737 34.2781C33.5779 34.2819 33.569 34.2739 33.5612 34.2669C33.5527 34.2594 33.5431 34.2509 33.5322 34.2416C33.5106 34.2229 33.4856 34.2019 33.4572 34.179C33.4005 34.1332 33.3311 34.0806 33.249 34.0239C33.0848 33.9106 32.869 33.7807 32.6007 33.6578C32.0583 33.4092 31.3208 33.1987 30.4009 33.1987V37.1987ZM30.821 37.1785C31.3664 37.7239 32.0863 37.9986 32.8008 37.9986V33.9986C33.1059 33.9986 33.416 34.1166 33.6495 34.35L30.821 37.1785ZM32.8008 37.9986C33.5156 37.9986 34.2353 37.7238 34.7806 37.1785L31.9522 34.35C32.1855 34.1167 32.4957 33.9986 32.8008 33.9986V37.9986ZM34.7808 37.1783C35.8742 36.0845 35.8745 34.3128 34.7806 33.2189L31.9522 36.0473C31.4838 35.5789 31.4841 34.8183 31.952 34.3502L34.7808 37.1783ZM34.7806 33.2189C34.4519 32.8902 32.9908 31.5987 30.4009 31.5987V35.5987C31.5661 35.5987 32.0698 36.1649 31.9522 36.0473L34.7806 33.2189ZM30.4009 31.5987H25.601V35.5987H30.4009V31.5987ZM25.601 31.5987C25.7543 31.5987 25.7665 31.6373 25.5723 31.555C25.4027 31.4831 25.1708 31.3599 24.8735 31.1748C24.2728 30.8005 23.5989 30.2968 22.8809 29.7585L20.4815 32.959C21.1634 33.4702 21.9827 34.0865 22.7585 34.5698C23.1495 34.8135 23.5767 35.0535 24.0108 35.2376C24.4204 35.4113 24.981 35.5987 25.601 35.5987V31.5987ZM22.8814 29.759C22.0282 29.1189 21.0767 28.4019 20.1386 27.8562C19.2209 27.3224 18.0667 26.7988 16.8014 26.7988V30.7988C17.0023 30.7988 17.4104 30.8968 18.1273 31.3138C18.8237 31.7189 19.579 32.2819 20.4809 32.9586L22.8814 29.759ZM16.8014 26.7988H10.4015V30.7988H16.8014V26.7988ZM10.4015 26.7988C8.85317 26.7988 7.60156 28.054 7.60156 29.5988H11.6016C11.6016 30.2604 11.0651 30.7988 10.4015 30.7988V26.7988ZM7.60156 29.5988C7.60156 31.1432 8.85287 32.3988 10.4015 32.3988V28.3988C11.0654 28.3988 11.6016 28.9374 11.6016 29.5988H7.60156Z" fill="#2F80ED" mask="url(#path-9-inside-4_1_782)"/>
<mask id="path-11-inside-5_1_782" fill="white">
<path d="M5.5998 25.5996H0.799945C0.357552 25.5996 0 25.958 0 26.3996C0 26.8411 0.357552 27.1995 0.799945 27.1995H5.5998C6.04135 27.1995 6.39975 27.5586 6.39975 27.9994V45.5989C6.39975 46.0397 6.04135 46.3988 5.5998 46.3988H0.799945C0.357552 46.3988 0 46.7572 0 47.1988C0 47.6403 0.357552 47.9987 0.799945 47.9987H5.5998C6.92295 47.9987 7.99973 46.922 7.99973 45.5988V27.9995C7.99973 26.6764 6.92295 25.5996 5.5998 25.5996Z"/>
</mask>
<path d="M5.5998 25.5996H0.799945C0.357552 25.5996 0 25.958 0 26.3996C0 26.8411 0.357552 27.1995 0.799945 27.1995H5.5998C6.04135 27.1995 6.39975 27.5586 6.39975 27.9994V45.5989C6.39975 46.0397 6.04135 46.3988 5.5998 46.3988H0.799945C0.357552 46.3988 0 46.7572 0 47.1988C0 47.6403 0.357552 47.9987 0.799945 47.9987H5.5998C6.92295 47.9987 7.99973 46.922 7.99973 45.5988V27.9995C7.99973 26.6764 6.92295 25.5996 5.5998 25.5996Z" fill="#052B61"/>
<path d="M5.5998 23.5996H0.799945V27.5996H5.5998V23.5996ZM0.799945 23.5996C-0.748388 23.5996 -2 24.8548 -2 26.3996H2C2 27.0612 1.46349 27.5996 0.799945 27.5996V23.5996ZM-2 26.3996C-2 27.9443 -0.748397 29.1995 0.799945 29.1995V25.1995C1.4635 25.1995 2 25.7379 2 26.3996H-2ZM0.799945 29.1995H5.5998V25.1995H0.799945V29.1995ZM5.5998 29.1995C4.93557 29.1995 4.39975 28.662 4.39975 27.9994H8.39975C8.39975 26.4553 7.14714 25.1995 5.5998 25.1995V29.1995ZM4.39975 27.9994V45.5989H8.39975V27.9994H4.39975ZM4.39975 45.5989C4.39975 44.9363 4.93557 44.3988 5.5998 44.3988V48.3988C7.14714 48.3988 8.39975 47.143 8.39975 45.5989H4.39975ZM5.5998 44.3988H0.799945V48.3988H5.5998V44.3988ZM0.799945 44.3988C-0.748388 44.3988 -2 45.654 -2 47.1988H2C2 47.8604 1.46349 48.3988 0.799945 48.3988V44.3988ZM-2 47.1988C-2 48.7435 -0.748397 49.9987 0.799945 49.9987V45.9987C1.4635 45.9987 2 46.5371 2 47.1988H-2ZM0.799945 49.9987H5.5998V45.9987H0.799945V49.9987ZM5.5998 49.9987C8.02752 49.9987 9.99973 48.0265 9.99973 45.5988H5.99973C5.99973 45.8174 5.81838 45.9987 5.5998 45.9987V49.9987ZM9.99973 45.5988V27.9995H5.99973V45.5988H9.99973ZM9.99973 27.9995C9.99973 25.5718 8.02752 23.5996 5.5998 23.5996V27.5996C5.81838 27.5996 5.99973 27.781 5.99973 27.9995H9.99973Z" fill="#2F80ED" mask="url(#path-11-inside-5_1_782)"/>
</g>
<defs>
<clipPath id="clip0_1_782">
<rect width="48" height="48" fill="white"/>
</clipPath>
</defs>
</svg>
