<svg width="32" height="32" viewBox="0 0 32 32" fill="none" xmlns="http://www.w3.org/2000/svg">
<path d="M24.25 20.0998C23.7286 19.7695 23.1 19.6527 22.4948 19.7737C21.8895 19.8948 21.3542 20.2444 21 20.7498C19.8 22.1998 18.35 24.5998 12.9 19.1498C7.45 13.6998 9.8 12.1998 11.25 10.9998C11.7555 10.6456 12.105 10.1103 12.2261 9.50504C12.3471 8.8998 12.2304 8.2712 11.9 7.74982L8.5 2.54982C8.05 1.89982 7.45 0.849822 6.05 1.04982C4.65 1.24982 1 3.29982 1 7.79982C1 12.2998 4.55 17.7998 9.4 22.6498C14.25 27.4998 19.75 30.9998 24.2 30.9998C28.65 30.9998 30.8 26.9998 30.95 25.9998C31.1 24.9998 30.1 23.9998 29.45 23.5498L24.25 20.0998Z" fill="#1B6CE1"/>
</svg>
