<svg width="48" height="48" viewBox="0 0 48 48" fill="none" xmlns="http://www.w3.org/2000/svg">
<g clip-path="url(#clip0_1_204)">
<path d="M37.05 37.7252L30.45 33.3752C29.7799 32.9402 28.9668 32.783 28.1829 32.937C27.399 33.091 26.7057 33.5441 26.25 34.2002C24.75 36.0752 22.875 39.1502 15.9 32.1002C8.925 25.0502 11.925 23.2502 13.8 21.7502C14.4358 21.2961 14.875 20.617 15.0282 19.8509C15.1815 19.0847 15.0373 18.2889 14.625 17.6252L10.275 11.0252C9.675 10.2002 8.925 8.85023 7.125 9.07523C5.325 9.30023 0.75 11.9252 0.75 17.6252C0.75 23.3252 5.25 30.3752 11.4 36.5252C17.55 42.6752 24.6 47.2502 30.375 47.2502C36.15 47.2502 38.775 42.1502 39 40.8752C39.225 39.6002 37.875 38.2502 37.05 37.7252Z" fill="#1B6CE1"/>
<path d="M21.75 0.75C21.3522 0.75 20.9706 0.908035 20.6893 1.18934C20.408 1.47064 20.25 1.85218 20.25 2.25C20.25 2.64782 20.408 3.02936 20.6893 3.31066C20.9706 3.59196 21.3522 3.75 21.75 3.75C27.7174 3.75 33.4403 6.12053 37.6599 10.3401C41.8795 14.5597 44.25 20.2826 44.25 26.25C44.25 26.6478 44.408 27.0294 44.6893 27.3107C44.9706 27.592 45.3522 27.75 45.75 27.75C46.1478 27.75 46.5294 27.592 46.8107 27.3107C47.092 27.0294 47.25 26.6478 47.25 26.25C47.25 22.9013 46.5904 19.5854 45.3089 16.4916C44.0274 13.3978 42.1491 10.5867 39.7812 8.21878C37.4133 5.85088 34.6022 3.97257 31.5084 2.69107C28.4146 1.40958 25.0987 0.75 21.75 0.75Z" fill="#1B6CE1"/>
<path d="M21.75 8.25C21.3522 8.25 20.9706 8.40804 20.6893 8.68934C20.408 8.97064 20.25 9.35218 20.25 9.75C20.25 10.1478 20.408 10.5294 20.6893 10.8107C20.9706 11.092 21.3522 11.25 21.75 11.25C25.7282 11.25 29.5436 12.8304 32.3566 15.6434C35.1696 18.4564 36.75 22.2718 36.75 26.25C36.75 26.6478 36.908 27.0294 37.1893 27.3107C37.4706 27.592 37.8522 27.75 38.25 27.75C38.6478 27.75 39.0294 27.592 39.3107 27.3107C39.592 27.0294 39.75 26.6478 39.75 26.25C39.75 21.4761 37.8536 16.8977 34.4779 13.5221C31.1023 10.1464 26.5239 8.25 21.75 8.25Z" fill="#1B6CE1"/>
<path d="M28.5 26.25C28.5 26.6478 28.658 27.0294 28.9393 27.3107C29.2206 27.592 29.6022 27.75 30 27.75C30.3978 27.75 30.7794 27.592 31.0607 27.3107C31.342 27.0294 31.5 26.6478 31.5 26.25C31.5 23.6641 30.4728 21.1842 28.6443 19.3557C26.8158 17.5272 24.3359 16.5 21.75 16.5C21.3522 16.5 20.9706 16.658 20.6893 16.9393C20.408 17.2206 20.25 17.6022 20.25 18C20.25 18.3978 20.408 18.7794 20.6893 19.0607C20.9706 19.342 21.3522 19.5 21.75 19.5C22.6364 19.5 23.5142 19.6746 24.3331 20.0138C25.1521 20.353 25.8962 20.8502 26.523 21.477C27.1498 22.1038 27.647 22.8479 27.9862 23.6669C28.3254 24.4858 28.5 25.3636 28.5 26.25Z" fill="#1B6CE1"/>
</g>
<defs>
<clipPath id="clip0_1_204">
<rect width="48" height="48" fill="white"/>
</clipPath>
</defs>
</svg>
