<svg width="32" height="32" viewBox="0 0 32 32" fill="none" xmlns="http://www.w3.org/2000/svg">
<g clip-path="url(#clip0_1_476)">
<path d="M29.2 22.3001L25.6 18.7001C27.3067 16.69 28.1945 14.1114 28.0872 11.4767C27.9798 8.84201 26.885 6.34418 25.0205 4.47963C23.156 2.61508 20.6581 1.52033 18.0234 1.41296C15.3888 1.30559 12.8101 2.19345 10.8 3.9001L7.20003 0.300099C7.00746 0.15567 6.76925 0.0855507 6.52914 0.102615C6.28903 0.119679 6.06313 0.222781 5.89292 0.392992C5.72271 0.563204 5.61961 0.7891 5.60255 1.02921C5.58548 1.26932 5.6556 1.50753 5.80003 1.7001L6.20003 2.1001C4.3563 4.20542 3.1383 6.78453 2.68372 9.54588C2.22914 12.3072 2.5561 15.1407 3.62765 17.7259C4.6992 20.3112 6.4726 22.5451 8.74736 24.1752C11.0221 25.8052 13.7075 26.7664 16.5 26.9501V30.0001H11.5C11.2348 30.0001 10.9805 30.1055 10.7929 30.293C10.6054 30.4805 10.5 30.7349 10.5 31.0001C10.5 31.2653 10.6054 31.5197 10.7929 31.7072C10.9805 31.8947 11.2348 32.0001 11.5 32.0001H23.5C23.7652 32.0001 24.0196 31.8947 24.2071 31.7072C24.3947 31.5197 24.5 31.2653 24.5 31.0001C24.5 30.7349 24.3947 30.4805 24.2071 30.293C24.0196 30.1055 23.7652 30.0001 23.5 30.0001H18.5V26.9501C21.7781 26.7297 24.8906 25.4285 27.35 23.2501L27.75 23.6501C27.9426 23.7945 28.1808 23.8646 28.4209 23.8476C28.661 23.8305 28.8869 23.7274 29.0571 23.5572C29.2273 23.387 29.3305 23.1611 29.3475 22.921C29.3646 22.6809 29.2945 22.4427 29.15 22.2501L29.2 22.3001ZM17.5 25.0001C15.0174 24.9945 12.5884 24.2782 10.5 22.9359C8.41159 21.5935 6.75123 19.6813 5.71522 17.4252C4.67921 15.1691 4.31086 12.6635 4.65373 10.2047C4.99659 7.74592 6.03634 5.4367 7.65003 3.5501L9.45003 5.3501C7.85161 7.36882 7.0507 9.90451 7.19955 12.4751C7.34839 15.0457 8.43663 17.472 10.2574 19.2928C12.0781 21.1135 14.5044 22.2017 17.075 22.3506C19.6456 22.4994 22.1813 21.6985 24.2 20.1001L26 21.9001C23.6339 23.9257 20.6147 25.0268 17.5 25.0001Z" fill="#1B6CE1"/>
</g>
<defs>
<clipPath id="clip0_1_476">
<rect width="32" height="32" fill="white"/>
</clipPath>
</defs>
</svg>
