<svg width="48" height="48" viewBox="0 0 48 48" fill="none" xmlns="http://www.w3.org/2000/svg">
<path d="M24 21C26.0711 21 27.75 19.3211 27.75 17.25C27.75 15.1789 26.0711 13.5 24 13.5C21.9289 13.5 20.25 15.1789 20.25 17.25C20.25 19.3211 21.9289 21 24 21Z" fill="#1B6CE1"/>
<path d="M30.3 22.5H17.7C17.3817 22.5 17.0765 22.6264 16.8515 22.8515C16.6264 23.0765 16.5 23.3817 16.5 23.7V33.3C16.5 33.6183 16.6264 33.9235 16.8515 34.1485C17.0765 34.3736 17.3817 34.5 17.7 34.5H19.5V43.8C19.5 44.1183 19.6264 44.4235 19.8515 44.6485C20.0765 44.8736 20.3817 45 20.7 45H27.3C27.6183 45 27.9235 44.8736 28.1485 44.6485C28.3736 44.4235 28.5 44.1183 28.5 43.8V34.5H30.3C30.6183 34.5 30.9235 34.3736 31.1485 34.1485C31.3736 33.9235 31.5 33.6183 31.5 33.3V23.7C31.5 23.3817 31.3736 23.0765 31.1485 22.8515C30.9235 22.6264 30.6183 22.5 30.3 22.5Z" fill="#1B6CE1"/>
<path d="M7.5 9C9.15685 9 10.5 7.65685 10.5 6C10.5 4.34315 9.15685 3 7.5 3C5.84315 3 4.5 4.34315 4.5 6C4.5 7.65685 5.84315 9 7.5 9Z" fill="#1B6CE1"/>
<path d="M12.3 11.25H2.7C2.38174 11.25 2.07652 11.3764 1.85147 11.6015C1.62643 11.8265 1.5 12.1317 1.5 12.45V19.8C1.5 20.1183 1.62643 20.4235 1.85147 20.6485C2.07652 20.8736 2.38174 21 2.7 21H4.5V28.8C4.5 29.1183 4.62643 29.4235 4.85147 29.6485C5.07652 29.8736 5.38174 30 5.7 30H9.3C9.61826 30 9.92348 29.8736 10.1485 29.6485C10.3736 29.4235 10.5 29.1183 10.5 28.8V21H12.3C12.6183 21 12.9235 20.8736 13.1485 20.6485C13.3736 20.4235 13.5 20.1183 13.5 19.8V12.45C13.5 12.1317 13.3736 11.8265 13.1485 11.6015C12.9235 11.3764 12.6183 11.25 12.3 11.25Z" fill="#1B6CE1"/>
<path d="M40.5 9C42.1569 9 43.5 7.65685 43.5 6C43.5 4.34315 42.1569 3 40.5 3C38.8431 3 37.5 4.34315 37.5 6C37.5 7.65685 38.8431 9 40.5 9Z" fill="#1B6CE1"/>
<path d="M45.3 11.25H35.7C35.3817 11.25 35.0765 11.3764 34.8515 11.6015C34.6264 11.8265 34.5 12.1317 34.5 12.45V19.8C34.5 20.1183 34.6264 20.4235 34.8515 20.6485C35.0765 20.8736 35.3817 21 35.7 21H37.5V28.8C37.5 29.1183 37.6264 29.4235 37.8515 29.6485C38.0765 29.8736 38.3817 30 38.7 30H42.3C42.6183 30 42.9235 29.8736 43.1485 29.6485C43.3736 29.4235 43.5 29.1183 43.5 28.8V21H45.3C45.6183 21 45.9235 20.8736 46.1485 20.6485C46.3736 20.4235 46.5 20.1183 46.5 19.8V12.45C46.5 12.1317 46.3736 11.8265 46.1485 11.6015C45.9235 11.3764 45.6183 11.25 45.3 11.25Z" fill="#1B6CE1"/>
</svg>
