<svg width="49" height="48" viewBox="0 0 49 48" fill="none" xmlns="http://www.w3.org/2000/svg">
<path d="M44.7577 2.25H23.165C22.909 2.25 22.6556 2.30044 22.4191 2.39843C22.1826 2.49643 21.9677 2.64007 21.7866 2.82114C21.6056 3.00222 21.462 3.21718 21.3641 3.45377C21.2661 3.69035 21.2157 3.94392 21.2157 4.2V18.3C21.2157 18.5561 21.2661 18.8096 21.3641 19.0462C21.462 19.2828 21.6056 19.4978 21.7866 19.6789C21.9677 19.8599 22.1826 20.0036 22.4191 20.1016C22.6556 20.1996 22.909 20.25 23.165 20.25H28.7131V25.5L33.9614 20.25H44.7577C45.2747 20.25 45.7705 20.0446 46.1361 19.6789C46.5017 19.3132 46.707 18.8172 46.707 18.3V4.2C46.707 3.68283 46.5017 3.18684 46.1361 2.82114C45.7705 2.45545 45.2747 2.25 44.7577 2.25ZM29.7628 12.3C29.4825 12.5748 29.1056 12.7288 28.7131 12.7288C28.3207 12.7288 27.9438 12.5748 27.6635 12.3C27.4916 12.1711 27.3495 12.0067 27.2466 11.818C27.1438 11.6293 27.0827 11.4207 27.0675 11.2063C27.0523 10.992 27.0832 10.7768 27.1584 10.5755C27.2335 10.3741 27.351 10.1913 27.5029 10.0393C27.6548 9.88738 27.8376 9.76984 28.0389 9.69469C28.2401 9.61955 28.4552 9.58854 28.6695 9.60377C28.8838 9.61901 29.0923 9.68013 29.2809 9.783C29.4696 9.88586 29.6339 10.0281 29.7628 10.2C30.0453 10.4769 30.207 10.8543 30.2126 11.25C30.207 11.6457 30.0453 12.0231 29.7628 12.3ZM35.011 12.3C34.7342 12.5826 34.3569 12.7444 33.9614 12.75C33.5637 12.75 33.1823 12.592 32.9011 12.3107C32.6199 12.0294 32.4619 11.6478 32.4619 11.25C32.4752 10.856 32.6357 10.4814 32.9117 10.2C33.1213 9.99444 33.3866 9.85493 33.6747 9.79877C33.9628 9.7426 34.261 9.77226 34.5324 9.88405C34.8039 9.99585 35.0365 10.1849 35.2015 10.4277C35.3666 10.6705 35.4567 10.9564 35.4609 11.25C35.4552 11.6457 35.2935 12.0231 35.011 12.3ZM40.2592 12.3C40.0496 12.5056 39.7843 12.6451 39.4963 12.7012C39.2082 12.7574 38.9099 12.7277 38.6385 12.6159C38.3671 12.5042 38.1344 12.3151 37.9694 12.0723C37.8044 11.8295 37.7142 11.5436 37.7101 11.25C37.7157 10.8543 37.8774 10.4769 38.1599 10.2C38.4486 9.94172 38.8223 9.79894 39.2096 9.79894C39.5969 9.79894 39.9706 9.94172 40.2592 10.2C40.5417 10.4769 40.7034 10.8543 40.7091 11.25C40.7034 11.6457 40.5417 12.0231 40.2592 12.3Z" fill="#FE56C6"/>
<path d="M28.7129 29.775V37.5H6.2206V6H18.2165V4.2C18.216 3.36019 18.429 2.53403 18.8356 1.79929C19.2422 1.06454 19.829 0.445356 20.5407 0L7.72009 0C6.52702 0 5.38282 0.474106 4.53919 1.31802C3.69556 2.16193 3.22162 3.30653 3.22162 4.5V43.5C3.22162 44.6935 3.69556 45.8381 4.53919 46.682C5.38282 47.5259 6.52702 48 7.72009 48H27.2135C28.4065 48 29.5507 47.5259 30.3944 46.682C31.238 45.8381 31.7119 44.6935 31.7119 43.5V26.775L30.8122 27.675L28.7129 29.775ZM19.0412 44.325C18.626 44.7489 18.0601 44.9915 17.4668 45C17.0265 44.9938 16.5978 44.8585 16.2337 44.6109C15.8696 44.3632 15.5862 44.0142 15.4185 43.6069C15.2509 43.1997 15.2064 42.7521 15.2907 42.3198C15.3749 41.8876 15.5841 41.4895 15.8923 41.175C16.3214 40.7797 16.8834 40.5603 17.4668 40.5603C18.0501 40.5603 18.6121 40.7797 19.0412 41.175C19.4534 41.5956 19.6842 42.1611 19.6842 42.75C19.6842 43.3389 19.4534 43.9044 19.0412 44.325Z" fill="#FE56C6"/>
</svg>
